<?xml version="1.0" encoding="UTF-8" standalone="no"?>
<!DOCTYPE svg PUBLIC "-//W3C//DTD SVG 1.1//EN"
 "http://www.w3.org/Graphics/SVG/1.1/DTD/svg11.dtd">
<!-- Generated by graphviz
 -->
<!-- Title: G Pages: 1 -->
<svg width="170pt" height="188pt"
 viewBox="0.00 0.00 170.00 188.00" xmlns="http://www.w3.org/2000/svg" xmlns:xlink="http://www.w3.org/1999/xlink">
<g id="graph0" class="graph" transform="scale(1 1) rotate(0) translate(4 184)">
<title>G</title>
<polygon fill="white" stroke="transparent" points="-4,4 -4,-184 166,-184 166,4 -4,4"/>
<!-- a -->
<g id="node1" class="node">
<title>a</title>
<polygon fill="none" stroke="black" points="54,-36 0,-36 0,0 54,0 54,-36"/>
<text text-anchor="middle" x="27" y="-14.3" font-family="monospace" font-size="14.00">a</text>
</g>
<!-- b -->
<g id="node2" class="node">
<title>b</title>
<polygon fill="none" stroke="black" points="126,-36 72,-36 72,0 126,0 126,-36"/>
<text text-anchor="middle" x="99" y="-14.3" font-family="monospace" font-size="14.00">b</text>
</g>
<!-- c -->
<g id="node3" class="node">
<title>c</title>
<polygon fill="none" stroke="black" points="162,-108 108,-108 108,-72 162,-72 162,-108"/>
<text text-anchor="middle" x="135" y="-86.3" font-family="monospace" font-size="14.00">c</text>
</g>
<!-- plus -->
<g id="node4" class="node">
<title>plus</title>
<polygon fill="none" stroke="black" points="90,-108 36,-108 36,-72 90,-72 90,-108"/>
<text text-anchor="middle" x="63" y="-86.3" font-family="monospace" font-size="14.00">+</text>
</g>
<!-- plus&#45;&gt;a -->
<g id="edge3" class="edge">
<title>plus&#45;&gt;a</title>
<path fill="none" stroke="black" d="M54.1,-71.7C50,-63.73 45.05,-54.1 40.51,-45.26"/>
<polygon fill="black" stroke="black" points="43.48,-43.4 35.8,-36.1 37.26,-46.6 43.48,-43.4"/>
</g>
<!-- plus&#45;&gt;b -->
<g id="edge4" class="edge">
<title>plus&#45;&gt;b</title>
<path fill="none" stroke="black" d="M71.9,-71.7C76,-63.73 80.95,-54.1 85.49,-45.26"/>
<polygon fill="black" stroke="black" points="88.74,-46.6 90.2,-36.1 82.52,-43.4 88.74,-46.6"/>
</g>
<!-- times -->
<g id="node5" class="node">
<title>times</title>
<polygon fill="none" stroke="black" points="126,-180 72,-180 72,-144 126,-144 126,-180"/>
<text text-anchor="middle" x="99" y="-158.3" font-family="monospace" font-size="14.00">*</text>
</g>
<!-- times&#45;&gt;c -->
<g id="edge2" class="edge">
<title>times&#45;&gt;c</title>
<path fill="none" stroke="black" d="M107.9,-143.7C112,-135.73 116.95,-126.1 121.49,-117.26"/>
<polygon fill="black" stroke="black" points="124.74,-118.6 126.2,-108.1 118.52,-115.4 124.74,-118.6"/>
</g>
<!-- times&#45;&gt;plus -->
<g id="edge1" class="edge">
<title>times&#45;&gt;plus</title>
<path fill="none" stroke="black" d="M90.1,-143.7C86,-135.73 81.05,-126.1 76.51,-117.26"/>
<polygon fill="black" stroke="black" points="79.48,-115.4 71.8,-108.1 73.26,-118.6 79.48,-115.4"/>
</g>
</g>
</svg>
