<?xml version="1.0" encoding="UTF-8" standalone="no"?>
<!DOCTYPE svg PUBLIC "-//W3C//DTD SVG 1.1//EN"
 "http://www.w3.org/Graphics/SVG/1.1/DTD/svg11.dtd">
<!-- Generated by graphviz
 -->
<!-- Title: G Pages: 1 -->
<svg width="278pt" height="188pt"
 viewBox="0.00 0.00 278.00 188.00" xmlns="http://www.w3.org/2000/svg" xmlns:xlink="http://www.w3.org/1999/xlink">
<g id="graph0" class="graph" transform="scale(1 1) rotate(0) translate(4 184)">
<title>G</title>
<polygon fill="white" stroke="transparent" points="-4,4 -4,-184 274,-184 274,4 -4,4"/>
<!-- x1 -->
<g id="node1" class="node">
<title>x1</title>
<polygon fill="none" stroke="black" points="54,-108 0,-108 0,-72 54,-72 54,-108"/>
<text text-anchor="middle" x="27" y="-86.3" font-family="monospace" font-size="14.00">x</text>
</g>
<!-- x2 -->
<g id="node2" class="node">
<title>x2</title>
<polygon fill="none" stroke="black" points="126,-36 72,-36 72,0 126,0 126,-36"/>
<text text-anchor="middle" x="99" y="-14.3" font-family="monospace" font-size="14.00">x</text>
</g>
<!-- plus -->
<g id="node3" class="node">
<title>plus</title>
<polygon fill="none" stroke="black" points="198,-108 144,-108 144,-72 198,-72 198,-108"/>
<text text-anchor="middle" x="171" y="-86.3" font-family="monospace" font-size="14.00">+</text>
</g>
<!-- three -->
<g id="node4" class="node">
<title>three</title>
<polygon fill="none" stroke="black" points="270,-36 216,-36 216,0 270,0 270,-36"/>
<text text-anchor="middle" x="243" y="-14.3" font-family="monospace" font-size="14.00">3</text>
</g>
<!-- plus&#45;&gt;three -->
<g id="edge6" class="edge">
<title>plus&#45;&gt;three</title>
<path fill="none" stroke="black" d="M188.8,-71.7C197.6,-63.14 208.38,-52.66 218,-43.3"/>
<polygon fill="black" stroke="black" points="220.68,-45.58 225.41,-36.1 215.8,-40.57 220.68,-45.58"/>
</g>
<!-- y -->
<g id="node7" class="node">
<title>y</title>
<polygon fill="none" stroke="black" points="198,-36 144,-36 144,0 198,0 198,-36"/>
<text text-anchor="middle" x="171" y="-14.3" font-family="monospace" font-size="14.00">y</text>
</g>
<!-- plus&#45;&gt;y -->
<g id="edge5" class="edge">
<title>plus&#45;&gt;y</title>
<path fill="none" stroke="black" d="M171,-71.7C171,-63.98 171,-54.71 171,-46.11"/>
<polygon fill="black" stroke="black" points="174.5,-46.1 171,-36.1 167.5,-46.1 174.5,-46.1"/>
</g>
<!-- f -->
<g id="node5" class="node">
<title>f</title>
<polygon fill="none" stroke="black" points="126,-180 72,-180 72,-144 126,-144 126,-180"/>
<text text-anchor="middle" x="99" y="-158.3" font-family="monospace" font-size="14.00">f</text>
</g>
<!-- f&#45;&gt;x1 -->
<g id="edge1" class="edge">
<title>f&#45;&gt;x1</title>
<path fill="none" stroke="black" d="M81.2,-143.7C72.4,-135.14 61.62,-124.66 52,-115.3"/>
<polygon fill="black" stroke="black" points="54.2,-112.57 44.59,-108.1 49.32,-117.58 54.2,-112.57"/>
</g>
<!-- f&#45;&gt;plus -->
<g id="edge4" class="edge">
<title>f&#45;&gt;plus</title>
<path fill="none" stroke="black" d="M116.8,-143.7C125.6,-135.14 136.38,-124.66 146,-115.3"/>
<polygon fill="black" stroke="black" points="148.68,-117.58 153.41,-108.1 143.8,-112.57 148.68,-117.58"/>
</g>
<!-- g -->
<g id="node6" class="node">
<title>g</title>
<polygon fill="none" stroke="black" points="126,-108 72,-108 72,-72 126,-72 126,-108"/>
<text text-anchor="middle" x="99" y="-86.3" font-family="monospace" font-size="14.00">g</text>
</g>
<!-- f&#45;&gt;g -->
<g id="edge2" class="edge">
<title>f&#45;&gt;g</title>
<path fill="none" stroke="black" d="M99,-143.7C99,-135.98 99,-126.71 99,-118.11"/>
<polygon fill="black" stroke="black" points="102.5,-118.1 99,-108.1 95.5,-118.1 102.5,-118.1"/>
</g>
<!-- g&#45;&gt;x2 -->
<g id="edge3" class="edge">
<title>g&#45;&gt;x2</title>
<path fill="none" stroke="black" d="M99,-71.7C99,-63.98 99,-54.71 99,-46.11"/>
<polygon fill="black" stroke="black" points="102.5,-46.1 99,-36.1 95.5,-46.1 102.5,-46.1"/>
</g>
</g>
</svg>
