<?xml version="1.0" encoding="UTF-8" standalone="no"?>
<!DOCTYPE svg PUBLIC "-//W3C//DTD SVG 1.1//EN"
 "http://www.w3.org/Graphics/SVG/1.1/DTD/svg11.dtd">
<!-- Generated by graphviz
 -->
<!-- Title: G Pages: 1 -->
<svg width="343pt" height="188pt"
 viewBox="0.00 0.00 342.50 188.00" xmlns="http://www.w3.org/2000/svg" xmlns:xlink="http://www.w3.org/1999/xlink">
<g id="graph0" class="graph" transform="scale(1 1) rotate(0) translate(4 184)">
<title>G</title>
<polygon fill="white" stroke="transparent" points="-4,4 -4,-184 338.5,-184 338.5,4 -4,4"/>
<!-- gt -->
<g id="node1" class="node">
<title>gt</title>
<polygon fill="none" stroke="black" points="116,-108 62,-108 62,-72 116,-72 116,-108"/>
<text text-anchor="middle" x="89" y="-86.3" font-family="monospace" font-size="14.00">&gt;</text>
</g>
<!-- x1 -->
<g id="node4" class="node">
<title>x1</title>
<polygon fill="none" stroke="black" points="54,-36 0,-36 0,0 54,0 54,-36"/>
<text text-anchor="middle" x="27" y="-14.3" font-family="monospace" font-size="14.00">x</text>
</g>
<!-- gt&#45;&gt;x1 -->
<g id="edge2" class="edge">
<title>gt&#45;&gt;x1</title>
<path fill="none" stroke="black" d="M73.67,-71.7C66.24,-63.3 57.18,-53.07 49.02,-43.86"/>
<polygon fill="black" stroke="black" points="51.4,-41.27 42.15,-36.1 46.16,-45.91 51.4,-41.27"/>
</g>
<!-- 10 -->
<g id="node7" class="node">
<title>10</title>
<polygon fill="none" stroke="black" points="126,-36 72,-36 72,0 126,0 126,-36"/>
<text text-anchor="middle" x="99" y="-14.3" font-family="monospace" font-size="14.00">10</text>
</g>
<!-- gt&#45;&gt;10 -->
<g id="edge3" class="edge">
<title>gt&#45;&gt;10</title>
<path fill="none" stroke="black" d="M91.47,-71.7C92.57,-63.98 93.9,-54.71 95.13,-46.11"/>
<polygon fill="black" stroke="black" points="98.61,-46.5 96.56,-36.1 91.68,-45.51 98.61,-46.5"/>
</g>
<!-- f1 -->
<g id="node2" class="node">
<title>f1</title>
<polygon fill="none" stroke="black" points="225.5,-108 134.5,-108 134.5,-72 225.5,-72 225.5,-108"/>
<text text-anchor="middle" x="180" y="-86.3" font-family="monospace" font-size="14.00">print_int</text>
</g>
<!-- x2 -->
<g id="node5" class="node">
<title>x2</title>
<polygon fill="none" stroke="black" points="207,-36 153,-36 153,0 207,0 207,-36"/>
<text text-anchor="middle" x="180" y="-14.3" font-family="monospace" font-size="14.00">x</text>
</g>
<!-- f1&#45;&gt;x2 -->
<g id="edge5" class="edge">
<title>f1&#45;&gt;x2</title>
<path fill="none" stroke="black" d="M180,-71.7C180,-63.98 180,-54.71 180,-46.11"/>
<polygon fill="black" stroke="black" points="183.5,-46.1 180,-36.1 176.5,-46.1 183.5,-46.1"/>
</g>
<!-- f2 -->
<g id="node3" class="node">
<title>f2</title>
<polygon fill="none" stroke="black" points="334.5,-108 243.5,-108 243.5,-72 334.5,-72 334.5,-108"/>
<text text-anchor="middle" x="289" y="-86.3" font-family="monospace" font-size="14.00">print_int</text>
</g>
<!-- y -->
<g id="node8" class="node">
<title>y</title>
<polygon fill="none" stroke="black" points="316,-36 262,-36 262,0 316,0 316,-36"/>
<text text-anchor="middle" x="289" y="-14.3" font-family="monospace" font-size="14.00">y</text>
</g>
<!-- f2&#45;&gt;y -->
<g id="edge7" class="edge">
<title>f2&#45;&gt;y</title>
<path fill="none" stroke="black" d="M289,-71.7C289,-63.98 289,-54.71 289,-46.11"/>
<polygon fill="black" stroke="black" points="292.5,-46.1 289,-36.1 285.5,-46.1 292.5,-46.1"/>
</g>
<!-- if -->
<g id="node6" class="node">
<title>if</title>
<polygon fill="none" stroke="black" points="207,-180 153,-180 153,-144 207,-144 207,-180"/>
<text text-anchor="middle" x="180" y="-158.3" font-family="monospace" font-size="14.00">if</text>
</g>
<!-- if&#45;&gt;gt -->
<g id="edge1" class="edge">
<title>if&#45;&gt;gt</title>
<path fill="none" stroke="black" d="M157.51,-143.7C146.04,-134.88 131.94,-124.03 119.52,-114.47"/>
<polygon fill="black" stroke="black" points="121.3,-111.43 111.24,-108.1 117.03,-116.98 121.3,-111.43"/>
</g>
<!-- if&#45;&gt;f1 -->
<g id="edge4" class="edge">
<title>if&#45;&gt;f1</title>
<path fill="none" stroke="black" d="M180,-143.7C180,-135.98 180,-126.71 180,-118.11"/>
<polygon fill="black" stroke="black" points="183.5,-118.1 180,-108.1 176.5,-118.1 183.5,-118.1"/>
</g>
<!-- if&#45;&gt;f2 -->
<g id="edge6" class="edge">
<title>if&#45;&gt;f2</title>
<path fill="none" stroke="black" d="M206.66,-143.88C220.78,-134.81 238.31,-123.55 253.56,-113.76"/>
<polygon fill="black" stroke="black" points="255.71,-116.54 262.23,-108.19 251.93,-110.65 255.71,-116.54"/>
</g>
</g>
</svg>
