<?xml version="1.0" encoding="UTF-8" standalone="no"?>
<!DOCTYPE svg PUBLIC "-//W3C//DTD SVG 1.1//EN"
 "http://www.w3.org/Graphics/SVG/1.1/DTD/svg11.dtd">
<!-- Generated by graphviz
 -->
<!-- Title: G Pages: 1 -->
<svg width="235pt" height="211pt"
 viewBox="0.00 0.00 235.00 211.00" xmlns="http://www.w3.org/2000/svg" xmlns:xlink="http://www.w3.org/1999/xlink">
<g id="graph0" class="graph" transform="scale(1 1) rotate(0) translate(4 207)">
<title>G</title>
<polygon fill="white" stroke="transparent" points="-4,4 -4,-207 231,-207 231,4 -4,4"/>
<text text-anchor="middle" x="113.5" y="-187.8" font-family="Times,serif" font-size="14.00">Left&#45;associatively parsed AST</text>
<!-- one -->
<g id="node1" class="node">
<title>one</title>
<polygon fill="none" stroke="black" points="86.5,-36 32.5,-36 32.5,0 86.5,0 86.5,-36"/>
<text text-anchor="middle" x="59.5" y="-14.3" font-family="monospace" font-size="14.00">1</text>
</g>
<!-- two -->
<g id="node2" class="node">
<title>two</title>
<polygon fill="none" stroke="black" points="158.5,-36 104.5,-36 104.5,0 158.5,0 158.5,-36"/>
<text text-anchor="middle" x="131.5" y="-14.3" font-family="monospace" font-size="14.00">2</text>
</g>
<!-- three -->
<g id="node3" class="node">
<title>three</title>
<polygon fill="none" stroke="black" points="194.5,-108 140.5,-108 140.5,-72 194.5,-72 194.5,-108"/>
<text text-anchor="middle" x="167.5" y="-86.3" font-family="monospace" font-size="14.00">3</text>
</g>
<!-- op1 -->
<g id="node4" class="node">
<title>op1</title>
<polygon fill="none" stroke="black" points="158.5,-180 104.5,-180 104.5,-144 158.5,-144 158.5,-180"/>
<text text-anchor="middle" x="131.5" y="-158.3" font-family="monospace" font-size="14.00">+</text>
</g>
<!-- op1&#45;&gt;three -->
<g id="edge2" class="edge">
<title>op1&#45;&gt;three</title>
<path fill="none" stroke="black" d="M140.4,-143.7C144.5,-135.73 149.45,-126.1 153.99,-117.26"/>
<polygon fill="black" stroke="black" points="157.24,-118.6 158.7,-108.1 151.02,-115.4 157.24,-118.6"/>
</g>
<!-- op2 -->
<g id="node5" class="node">
<title>op2</title>
<polygon fill="none" stroke="black" points="122.5,-108 68.5,-108 68.5,-72 122.5,-72 122.5,-108"/>
<text text-anchor="middle" x="95.5" y="-86.3" font-family="monospace" font-size="14.00">&#45;</text>
</g>
<!-- op1&#45;&gt;op2 -->
<g id="edge1" class="edge">
<title>op1&#45;&gt;op2</title>
<path fill="none" stroke="black" d="M122.6,-143.7C118.5,-135.73 113.55,-126.1 109.01,-117.26"/>
<polygon fill="black" stroke="black" points="111.98,-115.4 104.3,-108.1 105.76,-118.6 111.98,-115.4"/>
</g>
<!-- op2&#45;&gt;one -->
<g id="edge3" class="edge">
<title>op2&#45;&gt;one</title>
<path fill="none" stroke="black" d="M86.6,-71.7C82.5,-63.73 77.55,-54.1 73.01,-45.26"/>
<polygon fill="black" stroke="black" points="75.98,-43.4 68.3,-36.1 69.76,-46.6 75.98,-43.4"/>
</g>
<!-- op2&#45;&gt;two -->
<g id="edge4" class="edge">
<title>op2&#45;&gt;two</title>
<path fill="none" stroke="black" d="M104.4,-71.7C108.5,-63.73 113.45,-54.1 117.99,-45.26"/>
<polygon fill="black" stroke="black" points="121.24,-46.6 122.7,-36.1 115.02,-43.4 121.24,-46.6"/>
</g>
</g>
</svg>
