<?xml version="1.0" encoding="UTF-8" standalone="no"?>
<!DOCTYPE svg PUBLIC "-//W3C//DTD SVG 1.1//EN"
 "http://www.w3.org/Graphics/SVG/1.1/DTD/svg11.dtd">
<!-- Generated by graphviz
 -->
<!-- Title: G Pages: 1 -->
<svg width="392pt" height="770pt"
 viewBox="0.00 0.00 392.00 770.00" xmlns="http://www.w3.org/2000/svg" xmlns:xlink="http://www.w3.org/1999/xlink">
<g id="graph0" class="graph" transform="scale(1 1) rotate(0) translate(4 766)">
<title>G</title>
<polygon fill="white" stroke="transparent" points="-4,4 -4,-766 388,-766 388,4 -4,4"/>
<text text-anchor="start" x="125.5" y="-747.8" font-family="monospace" font-size="14.00">input: </text>
<text text-anchor="start" x="183.5" y="-747.8" font-family="monospace" font-weight="bold" font-size="14.00">a + b * c</text>
<g id="clust1" class="cluster">
<title>cluster_parse_tree</title>
<polygon fill="none" stroke="black" points="8,-8 8,-731 226,-731 226,-8 8,-8"/>
<text text-anchor="middle" x="117" y="-715.8" font-family="monospace" font-size="14.00">Parse tree</text>
</g>
<g id="clust2" class="cluster">
<title>cluster_ast</title>
<polygon fill="none" stroke="black" points="234,-512 234,-731 376,-731 376,-512 234,-512"/>
<text text-anchor="middle" x="305" y="-715.8" font-family="monospace" font-size="14.00">AST</text>
</g>
<!-- pt_expr1 -->
<g id="node1" class="node">
<title>pt_expr1</title>
<polygon fill="none" stroke="black" points="122.5,-700 65.5,-700 65.5,-664 122.5,-664 122.5,-700"/>
<text text-anchor="start" x="73.5" y="-679.3" font-family="monospace" font-size="14.00">expr</text>
<text text-anchor="start" x="107.5" y="-679.3" font-family="monospace" baseline-shift="sub" font-size="14.00">1</text>
</g>
<!-- pt_term1 -->
<g id="node3" class="node">
<title>pt_term1</title>
<polygon fill="none" stroke="black" points="83.5,-628 26.5,-628 26.5,-592 83.5,-592 83.5,-628"/>
<text text-anchor="start" x="34.5" y="-607.3" font-family="monospace" font-size="14.00">term</text>
<text text-anchor="start" x="68.5" y="-607.3" font-family="monospace" baseline-shift="sub" font-size="14.00">1</text>
</g>
<!-- pt_expr1&#45;&gt;pt_term1 -->
<g id="edge1" class="edge">
<title>pt_expr1&#45;&gt;pt_term1</title>
<path fill="none" stroke="black" d="M84.36,-663.7C79.87,-655.64 74.44,-645.89 69.48,-636.98"/>
<polygon fill="black" stroke="black" points="72.45,-635.14 64.53,-628.1 66.34,-638.54 72.45,-635.14"/>
</g>
<!-- pt_q1 -->
<g id="node14" class="node">
<title>pt_q1</title>
<polygon fill="none" stroke="black" points="160,-628 106,-628 106,-592 160,-592 160,-628"/>
<text text-anchor="middle" x="133" y="-606.3" font-family="monospace" font-size="14.00">?</text>
</g>
<!-- pt_expr1&#45;&gt;pt_q1 -->
<g id="edge2" class="edge">
<title>pt_expr1&#45;&gt;pt_q1</title>
<path fill="none" stroke="black" d="M103.64,-663.7C108.13,-655.64 113.56,-645.89 118.52,-636.98"/>
<polygon fill="black" stroke="black" points="121.66,-638.54 123.47,-628.1 115.55,-635.14 121.66,-638.54"/>
</g>
<!-- pt_expr2 -->
<g id="node2" class="node">
<title>pt_expr2</title>
<polygon fill="none" stroke="black" points="217.5,-484 160.5,-484 160.5,-448 217.5,-448 217.5,-484"/>
<text text-anchor="start" x="168.5" y="-463.3" font-family="monospace" font-size="14.00">expr</text>
<text text-anchor="start" x="202.5" y="-463.3" font-family="monospace" baseline-shift="sub" font-size="14.00">2</text>
</g>
<!-- pt_term2 -->
<g id="node4" class="node">
<title>pt_term2</title>
<polygon fill="none" stroke="black" points="217.5,-412 160.5,-412 160.5,-376 217.5,-376 217.5,-412"/>
<text text-anchor="start" x="168.5" y="-391.3" font-family="monospace" font-size="14.00">term</text>
<text text-anchor="start" x="202.5" y="-391.3" font-family="monospace" baseline-shift="sub" font-size="14.00">2</text>
</g>
<!-- pt_expr2&#45;&gt;pt_term2 -->
<g id="edge7" class="edge">
<title>pt_expr2&#45;&gt;pt_term2</title>
<path fill="none" stroke="black" d="M189,-447.7C189,-439.98 189,-430.71 189,-422.11"/>
<polygon fill="black" stroke="black" points="192.5,-422.1 189,-412.1 185.5,-422.1 192.5,-422.1"/>
</g>
<!-- pt_factor1 -->
<g id="node8" class="node">
<title>pt_factor1</title>
<polygon fill="none" stroke="black" points="89.5,-556 16.5,-556 16.5,-520 89.5,-520 89.5,-556"/>
<text text-anchor="start" x="24.5" y="-535.3" font-family="monospace" font-size="14.00">factor</text>
<text text-anchor="start" x="74.5" y="-535.3" font-family="monospace" baseline-shift="sub" font-size="14.00">1</text>
</g>
<!-- pt_term1&#45;&gt;pt_factor1 -->
<g id="edge8" class="edge">
<title>pt_term1&#45;&gt;pt_factor1</title>
<path fill="none" stroke="black" d="M54.51,-591.7C54.29,-583.98 54.02,-574.71 53.77,-566.11"/>
<polygon fill="black" stroke="black" points="57.27,-566 53.49,-556.1 50.28,-566.2 57.27,-566"/>
</g>
<!-- pt_factor2 -->
<g id="node9" class="node">
<title>pt_factor2</title>
<polygon fill="none" stroke="black" points="143.5,-340 70.5,-340 70.5,-304 143.5,-304 143.5,-340"/>
<text text-anchor="start" x="78.5" y="-319.3" font-family="monospace" font-size="14.00">factor</text>
<text text-anchor="start" x="128.5" y="-319.3" font-family="monospace" baseline-shift="sub" font-size="14.00">2</text>
</g>
<!-- pt_term2&#45;&gt;pt_factor2 -->
<g id="edge11" class="edge">
<title>pt_term2&#45;&gt;pt_factor2</title>
<path fill="none" stroke="black" d="M168.73,-375.7C158.5,-366.97 145.94,-356.24 134.82,-346.75"/>
<polygon fill="black" stroke="black" points="136.91,-343.94 127.04,-340.1 132.37,-349.26 136.91,-343.94"/>
</g>
<!-- pt_q2 -->
<g id="node15" class="node">
<title>pt_q2</title>
<polygon fill="none" stroke="black" points="216,-340 162,-340 162,-304 216,-304 216,-340"/>
<text text-anchor="middle" x="189" y="-318.3" font-family="monospace" font-size="14.00">?</text>
</g>
<!-- pt_term2&#45;&gt;pt_q2 -->
<g id="edge13" class="edge">
<title>pt_term2&#45;&gt;pt_q2</title>
<path fill="none" stroke="black" d="M189,-375.7C189,-367.98 189,-358.71 189,-350.11"/>
<polygon fill="black" stroke="black" points="192.5,-350.1 189,-340.1 185.5,-350.1 192.5,-350.1"/>
</g>
<!-- pt_term3 -->
<g id="node5" class="node">
<title>pt_term3</title>
<polygon fill="none" stroke="black" points="209.5,-196 152.5,-196 152.5,-160 209.5,-160 209.5,-196"/>
<text text-anchor="start" x="160.5" y="-175.3" font-family="monospace" font-size="14.00">term</text>
<text text-anchor="start" x="194.5" y="-175.3" font-family="monospace" baseline-shift="sub" font-size="14.00">3</text>
</g>
<!-- pt_factor3 -->
<g id="node10" class="node">
<title>pt_factor3</title>
<polygon fill="none" stroke="black" points="217.5,-124 144.5,-124 144.5,-88 217.5,-88 217.5,-124"/>
<text text-anchor="start" x="152.5" y="-103.3" font-family="monospace" font-size="14.00">factor</text>
<text text-anchor="start" x="202.5" y="-103.3" font-family="monospace" baseline-shift="sub" font-size="14.00">3</text>
</g>
<!-- pt_term3&#45;&gt;pt_factor3 -->
<g id="edge18" class="edge">
<title>pt_term3&#45;&gt;pt_factor3</title>
<path fill="none" stroke="black" d="M181,-159.7C181,-151.98 181,-142.71 181,-134.11"/>
<polygon fill="black" stroke="black" points="184.5,-134.1 181,-124.1 177.5,-134.1 184.5,-134.1"/>
</g>
<!-- pt_plus -->
<g id="node6" class="node">
<title>pt_plus</title>
<polygon fill="none" stroke="black" points="142,-412 88,-412 88,-376 142,-376 142,-412"/>
<text text-anchor="middle" x="115" y="-390.3" font-family="monospace" font-size="14.00">+</text>
</g>
<!-- pt_times -->
<g id="node7" class="node">
<title>pt_times</title>
<polygon fill="none" stroke="black" points="126,-124 72,-124 72,-88 126,-88 126,-124"/>
<text text-anchor="middle" x="99" y="-102.3" font-family="monospace" font-size="14.00">*</text>
</g>
<!-- pt_par3 -->
<g id="node18" class="node">
<title>pt_par3</title>
<polygon fill="none" stroke="black" points="70,-484 16,-484 16,-448 70,-448 70,-484"/>
<text text-anchor="middle" x="43" y="-462.3" font-family="monospace" font-size="14.00">( )</text>
</g>
<!-- pt_factor1&#45;&gt;pt_par3 -->
<g id="edge9" class="edge">
<title>pt_factor1&#45;&gt;pt_par3</title>
<path fill="none" stroke="black" d="M50.53,-519.7C49.43,-511.98 48.1,-502.71 46.87,-494.11"/>
<polygon fill="black" stroke="black" points="50.32,-493.51 45.44,-484.1 43.39,-494.5 50.32,-493.51"/>
</g>
<!-- pt_b -->
<g id="node12" class="node">
<title>pt_b</title>
<polygon fill="none" stroke="black" points="134,-268 80,-268 80,-232 134,-232 134,-268"/>
<text text-anchor="middle" x="107" y="-246.3" font-family="monospace" font-size="14.00">b</text>
</g>
<!-- pt_factor2&#45;&gt;pt_b -->
<g id="edge12" class="edge">
<title>pt_factor2&#45;&gt;pt_b</title>
<path fill="none" stroke="black" d="M107,-303.7C107,-295.98 107,-286.71 107,-278.11"/>
<polygon fill="black" stroke="black" points="110.5,-278.1 107,-268.1 103.5,-278.1 110.5,-278.1"/>
</g>
<!-- pt_c -->
<g id="node13" class="node">
<title>pt_c</title>
<polygon fill="none" stroke="black" points="208,-52 154,-52 154,-16 208,-16 208,-52"/>
<text text-anchor="middle" x="181" y="-30.3" font-family="monospace" font-size="14.00">c</text>
</g>
<!-- pt_factor3&#45;&gt;pt_c -->
<g id="edge19" class="edge">
<title>pt_factor3&#45;&gt;pt_c</title>
<path fill="none" stroke="black" d="M181,-87.7C181,-79.98 181,-70.71 181,-62.11"/>
<polygon fill="black" stroke="black" points="184.5,-62.1 181,-52.1 177.5,-62.1 184.5,-62.1"/>
</g>
<!-- pt_a -->
<g id="node11" class="node">
<title>pt_a</title>
<polygon fill="none" stroke="black" points="70,-412 16,-412 16,-376 70,-376 70,-412"/>
<text text-anchor="middle" x="43" y="-390.3" font-family="monospace" font-size="14.00">a</text>
</g>
<!-- pt_par1 -->
<g id="node16" class="node">
<title>pt_par1</title>
<polygon fill="none" stroke="black" points="162,-556 108,-556 108,-520 162,-520 162,-556"/>
<text text-anchor="middle" x="135" y="-534.3" font-family="monospace" font-size="14.00">( )</text>
</g>
<!-- pt_q1&#45;&gt;pt_par1 -->
<g id="edge3" class="edge">
<title>pt_q1&#45;&gt;pt_par1</title>
<path fill="none" stroke="black" d="M133.49,-591.7C133.71,-583.98 133.98,-574.71 134.23,-566.11"/>
<polygon fill="black" stroke="black" points="137.72,-566.2 134.51,-556.1 130.73,-566 137.72,-566.2"/>
</g>
<!-- pt_par4 -->
<g id="node19" class="node">
<title>pt_par4</title>
<polygon fill="none" stroke="black" points="208,-268 154,-268 154,-232 208,-232 208,-268"/>
<text text-anchor="middle" x="181" y="-246.3" font-family="monospace" font-size="14.00">( )</text>
</g>
<!-- pt_q2&#45;&gt;pt_par4 -->
<g id="edge14" class="edge">
<title>pt_q2&#45;&gt;pt_par4</title>
<path fill="none" stroke="black" d="M187.02,-303.7C186.14,-295.98 185.08,-286.71 184.1,-278.11"/>
<polygon fill="black" stroke="black" points="187.57,-277.64 182.95,-268.1 180.61,-278.44 187.57,-277.64"/>
</g>
<!-- pt_par1&#45;&gt;pt_expr2 -->
<g id="edge6" class="edge">
<title>pt_par1&#45;&gt;pt_expr2</title>
<path fill="none" stroke="black" d="M148.35,-519.7C154.76,-511.39 162.56,-501.28 169.61,-492.14"/>
<polygon fill="black" stroke="black" points="172.47,-494.16 175.81,-484.1 166.93,-489.88 172.47,-494.16"/>
</g>
<!-- pt_par2 -->
<g id="node17" class="node">
<title>pt_par2</title>
<polygon fill="none" stroke="black" points="142,-484 88,-484 88,-448 142,-448 142,-484"/>
<text text-anchor="middle" x="115" y="-462.3" font-family="monospace" font-size="14.00">( )</text>
</g>
<!-- pt_par1&#45;&gt;pt_par2 -->
<g id="edge4" class="edge">
<title>pt_par1&#45;&gt;pt_par2</title>
<path fill="none" stroke="black" d="M130.06,-519.7C127.83,-511.9 125.15,-502.51 122.67,-493.83"/>
<polygon fill="black" stroke="black" points="126,-492.76 119.89,-484.1 119.27,-494.68 126,-492.76"/>
</g>
<!-- pt_par2&#45;&gt;pt_plus -->
<g id="edge5" class="edge">
<title>pt_par2&#45;&gt;pt_plus</title>
<path fill="none" stroke="black" d="M115,-447.7C115,-439.98 115,-430.71 115,-422.11"/>
<polygon fill="black" stroke="black" points="118.5,-422.1 115,-412.1 111.5,-422.1 118.5,-422.1"/>
</g>
<!-- pt_par3&#45;&gt;pt_a -->
<g id="edge10" class="edge">
<title>pt_par3&#45;&gt;pt_a</title>
<path fill="none" stroke="black" d="M43,-447.7C43,-439.98 43,-430.71 43,-422.11"/>
<polygon fill="black" stroke="black" points="46.5,-422.1 43,-412.1 39.5,-422.1 46.5,-422.1"/>
</g>
<!-- pt_par4&#45;&gt;pt_term3 -->
<g id="edge17" class="edge">
<title>pt_par4&#45;&gt;pt_term3</title>
<path fill="none" stroke="black" d="M181,-231.7C181,-223.98 181,-214.71 181,-206.11"/>
<polygon fill="black" stroke="black" points="184.5,-206.1 181,-196.1 177.5,-206.1 184.5,-206.1"/>
</g>
<!-- pt_par5 -->
<g id="node20" class="node">
<title>pt_par5</title>
<polygon fill="none" stroke="black" points="130,-196 76,-196 76,-160 130,-160 130,-196"/>
<text text-anchor="middle" x="103" y="-174.3" font-family="monospace" font-size="14.00">( )</text>
</g>
<!-- pt_par4&#45;&gt;pt_par5 -->
<g id="edge15" class="edge">
<title>pt_par4&#45;&gt;pt_par5</title>
<path fill="none" stroke="black" d="M161.72,-231.7C152.08,-223.05 140.27,-212.45 129.77,-203.03"/>
<polygon fill="black" stroke="black" points="131.84,-200.18 122.06,-196.1 127.16,-205.39 131.84,-200.18"/>
</g>
<!-- pt_par5&#45;&gt;pt_times -->
<g id="edge16" class="edge">
<title>pt_par5&#45;&gt;pt_times</title>
<path fill="none" stroke="black" d="M102.01,-159.7C101.57,-151.98 101.04,-142.71 100.55,-134.11"/>
<polygon fill="black" stroke="black" points="104.04,-133.89 99.98,-124.1 97.05,-134.29 104.04,-133.89"/>
</g>
<!-- ast_plus -->
<g id="node21" class="node">
<title>ast_plus</title>
<polygon fill="none" stroke="black" points="332,-700 278,-700 278,-664 332,-664 332,-700"/>
<text text-anchor="middle" x="305" y="-678.3" font-family="monospace" font-size="14.00">+</text>
</g>
<!-- ast_times -->
<g id="node22" class="node">
<title>ast_times</title>
<polygon fill="none" stroke="black" points="368,-628 314,-628 314,-592 368,-592 368,-628"/>
<text text-anchor="middle" x="341" y="-606.3" font-family="monospace" font-size="14.00">*</text>
</g>
<!-- ast_plus&#45;&gt;ast_times -->
<g id="edge21" class="edge">
<title>ast_plus&#45;&gt;ast_times</title>
<path fill="none" stroke="black" d="M313.9,-663.7C318,-655.73 322.95,-646.1 327.49,-637.26"/>
<polygon fill="black" stroke="black" points="330.74,-638.6 332.2,-628.1 324.52,-635.4 330.74,-638.6"/>
</g>
<!-- ast_a -->
<g id="node23" class="node">
<title>ast_a</title>
<polygon fill="none" stroke="black" points="296,-628 242,-628 242,-592 296,-592 296,-628"/>
<text text-anchor="middle" x="269" y="-606.3" font-family="monospace" font-size="14.00">a</text>
</g>
<!-- ast_plus&#45;&gt;ast_a -->
<g id="edge20" class="edge">
<title>ast_plus&#45;&gt;ast_a</title>
<path fill="none" stroke="black" d="M296.1,-663.7C292,-655.73 287.05,-646.1 282.51,-637.26"/>
<polygon fill="black" stroke="black" points="285.48,-635.4 277.8,-628.1 279.26,-638.6 285.48,-635.4"/>
</g>
<!-- ast_b -->
<g id="node24" class="node">
<title>ast_b</title>
<polygon fill="none" stroke="black" points="296,-556 242,-556 242,-520 296,-520 296,-556"/>
<text text-anchor="middle" x="269" y="-534.3" font-family="monospace" font-size="14.00">b</text>
</g>
<!-- ast_times&#45;&gt;ast_b -->
<g id="edge22" class="edge">
<title>ast_times&#45;&gt;ast_b</title>
<path fill="none" stroke="black" d="M323.2,-591.7C314.4,-583.14 303.62,-572.66 294,-563.3"/>
<polygon fill="black" stroke="black" points="296.2,-560.57 286.59,-556.1 291.32,-565.58 296.2,-560.57"/>
</g>
<!-- ast_c -->
<g id="node25" class="node">
<title>ast_c</title>
<polygon fill="none" stroke="black" points="368,-556 314,-556 314,-520 368,-520 368,-556"/>
<text text-anchor="middle" x="341" y="-534.3" font-family="monospace" font-size="14.00">c</text>
</g>
<!-- ast_times&#45;&gt;ast_c -->
<g id="edge23" class="edge">
<title>ast_times&#45;&gt;ast_c</title>
<path fill="none" stroke="black" d="M341,-591.7C341,-583.98 341,-574.71 341,-566.11"/>
<polygon fill="black" stroke="black" points="344.5,-566.1 341,-556.1 337.5,-566.1 344.5,-566.1"/>
</g>
</g>
</svg>
