<?xml version="1.0" encoding="UTF-8" standalone="no"?>
<!DOCTYPE svg PUBLIC "-//W3C//DTD SVG 1.1//EN"
 "http://www.w3.org/Graphics/SVG/1.1/DTD/svg11.dtd">
<!-- Generated by graphviz
 -->
<!-- Title: G Pages: 1 -->
<svg width="246pt" height="211pt"
 viewBox="0.00 0.00 246.00 211.00" xmlns="http://www.w3.org/2000/svg" xmlns:xlink="http://www.w3.org/1999/xlink">
<g id="graph0" class="graph" transform="scale(1 1) rotate(0) translate(4 207)">
<title>G</title>
<polygon fill="white" stroke="transparent" points="-4,4 -4,-207 242,-207 242,4 -4,4"/>
<text text-anchor="middle" x="119" y="-187.8" font-family="Times,serif" font-size="14.00">Right&#45;associatively parsed AST</text>
<!-- one -->
<g id="node1" class="node">
<title>one</title>
<polygon fill="none" stroke="black" points="92,-108 38,-108 38,-72 92,-72 92,-108"/>
<text text-anchor="middle" x="65" y="-86.3" font-family="monospace" font-size="14.00">1</text>
</g>
<!-- two -->
<g id="node2" class="node">
<title>two</title>
<polygon fill="none" stroke="black" points="128,-36 74,-36 74,0 128,0 128,-36"/>
<text text-anchor="middle" x="101" y="-14.3" font-family="monospace" font-size="14.00">2</text>
</g>
<!-- three -->
<g id="node3" class="node">
<title>three</title>
<polygon fill="none" stroke="black" points="200,-36 146,-36 146,0 200,0 200,-36"/>
<text text-anchor="middle" x="173" y="-14.3" font-family="monospace" font-size="14.00">3</text>
</g>
<!-- op1 -->
<g id="node4" class="node">
<title>op1</title>
<polygon fill="none" stroke="black" points="128,-180 74,-180 74,-144 128,-144 128,-180"/>
<text text-anchor="middle" x="101" y="-158.3" font-family="monospace" font-size="14.00">&#45;</text>
</g>
<!-- op1&#45;&gt;one -->
<g id="edge1" class="edge">
<title>op1&#45;&gt;one</title>
<path fill="none" stroke="black" d="M92.1,-143.7C88,-135.73 83.05,-126.1 78.51,-117.26"/>
<polygon fill="black" stroke="black" points="81.48,-115.4 73.8,-108.1 75.26,-118.6 81.48,-115.4"/>
</g>
<!-- op2 -->
<g id="node5" class="node">
<title>op2</title>
<polygon fill="none" stroke="black" points="164,-108 110,-108 110,-72 164,-72 164,-108"/>
<text text-anchor="middle" x="137" y="-86.3" font-family="monospace" font-size="14.00">+</text>
</g>
<!-- op1&#45;&gt;op2 -->
<g id="edge2" class="edge">
<title>op1&#45;&gt;op2</title>
<path fill="none" stroke="black" d="M109.9,-143.7C114,-135.73 118.95,-126.1 123.49,-117.26"/>
<polygon fill="black" stroke="black" points="126.74,-118.6 128.2,-108.1 120.52,-115.4 126.74,-118.6"/>
</g>
<!-- op2&#45;&gt;two -->
<g id="edge3" class="edge">
<title>op2&#45;&gt;two</title>
<path fill="none" stroke="black" d="M128.1,-71.7C124,-63.73 119.05,-54.1 114.51,-45.26"/>
<polygon fill="black" stroke="black" points="117.48,-43.4 109.8,-36.1 111.26,-46.6 117.48,-43.4"/>
</g>
<!-- op2&#45;&gt;three -->
<g id="edge4" class="edge">
<title>op2&#45;&gt;three</title>
<path fill="none" stroke="black" d="M145.9,-71.7C150,-63.73 154.95,-54.1 159.49,-45.26"/>
<polygon fill="black" stroke="black" points="162.74,-46.6 164.2,-36.1 156.52,-43.4 162.74,-46.6"/>
</g>
</g>
</svg>
