<?xml version="1.0" encoding="UTF-8" standalone="no"?>
<!DOCTYPE svg PUBLIC "-//W3C//DTD SVG 1.1//EN"
 "http://www.w3.org/Graphics/SVG/1.1/DTD/svg11.dtd">
<!-- Generated by graphviz
 -->
<!-- Title: G Pages: 1 -->
<svg width="314pt" height="571pt"
 viewBox="0.00 0.00 313.50 571.20" xmlns="http://www.w3.org/2000/svg" xmlns:xlink="http://www.w3.org/1999/xlink">
<g id="graph0" class="graph" transform="scale(1 1) rotate(0) translate(4 567.2)">
<title>G</title>
<polygon fill="white" stroke="transparent" points="-4,4 -4,-567.2 309.5,-567.2 309.5,4 -4,4"/>
<!-- start -->
<g id="node1" class="node">
<title>start</title>
<ellipse fill="black" stroke="black" cx="82.5" cy="-561.4" rx="1.8" ry="1.8"/>
</g>
<!-- tokenizer -->
<g id="node2" class="node">
<title>tokenizer</title>
<polygon fill="none" stroke="black" points="128,-512.6 37,-512.6 37,-476.6 128,-476.6 128,-512.6"/>
<text text-anchor="middle" x="82.5" y="-490.9" font-family="monospace" font-size="14.00">Tokenizer</text>
</g>
<!-- start&#45;&gt;tokenizer -->
<g id="edge1" class="edge">
<title>start&#45;&gt;tokenizer</title>
<path fill="none" stroke="black" d="M82.5,-559.28C82.5,-554.85 82.5,-538.14 82.5,-522.95"/>
<polygon fill="black" stroke="black" points="86,-522.85 82.5,-512.85 79,-522.85 86,-522.85"/>
<text text-anchor="middle" x="122" y="-533.6" font-family="monospace" font-size="10.00"> &#160;Source text</text>
</g>
<!-- parser -->
<g id="node3" class="node">
<title>parser</title>
<polygon fill="none" stroke="black" points="115.5,-429.6 49.5,-429.6 49.5,-393.6 115.5,-393.6 115.5,-429.6"/>
<text text-anchor="middle" x="82.5" y="-407.9" font-family="monospace" font-size="14.00">Parser</text>
</g>
<!-- tokenizer&#45;&gt;parser -->
<g id="edge2" class="edge">
<title>tokenizer&#45;&gt;parser</title>
<path fill="none" stroke="black" d="M82.5,-476.42C82.5,-465.79 82.5,-451.91 82.5,-439.8"/>
<polygon fill="black" stroke="black" points="86,-439.75 82.5,-429.75 79,-439.75 86,-439.75"/>
<text text-anchor="middle" x="119" y="-450.6" font-family="monospace" font-size="10.00"> &#160;Token list</text>
</g>
<!-- type_checker -->
<g id="node4" class="node">
<title>type_checker</title>
<polygon fill="none" stroke="black" points="140.5,-346.6 24.5,-346.6 24.5,-310.6 140.5,-310.6 140.5,-346.6"/>
<text text-anchor="middle" x="82.5" y="-324.9" font-family="monospace" font-size="14.00">Type checker</text>
</g>
<!-- parser&#45;&gt;type_checker -->
<g id="edge3" class="edge">
<title>parser&#45;&gt;type_checker</title>
<path fill="none" stroke="black" d="M82.5,-393.42C82.5,-382.79 82.5,-368.91 82.5,-356.8"/>
<polygon fill="black" stroke="black" points="86,-356.75 82.5,-346.75 79,-356.75 86,-356.75"/>
<text text-anchor="middle" x="167" y="-367.6" font-family="monospace" font-size="10.00"> &#160;Abstract syntax tree (AST)</text>
</g>
<!-- ir_emitter -->
<g id="node5" class="node">
<title>ir_emitter</title>
<polygon fill="none" stroke="black" points="140.5,-263.6 24.5,-263.6 24.5,-227.6 140.5,-227.6 140.5,-263.6"/>
<text text-anchor="middle" x="82.5" y="-241.9" font-family="monospace" font-size="14.00">IR generator</text>
</g>
<!-- type_checker&#45;&gt;ir_emitter -->
<g id="edge4" class="edge">
<title>type_checker&#45;&gt;ir_emitter</title>
<path fill="none" stroke="black" d="M82.5,-310.42C82.5,-299.79 82.5,-285.91 82.5,-273.8"/>
<polygon fill="black" stroke="black" points="86,-273.75 82.5,-263.75 79,-273.75 86,-273.75"/>
<text text-anchor="middle" x="143" y="-284.6" font-family="monospace" font-size="10.00"> &#160;Type&#45;annotated AST</text>
</g>
<!-- assembly_emitter -->
<g id="node6" class="node">
<title>assembly_emitter</title>
<polygon fill="none" stroke="black" points="165,-169.6 0,-169.6 0,-133.6 165,-133.6 165,-169.6"/>
<text text-anchor="middle" x="82.5" y="-147.9" font-family="monospace" font-size="14.00">Assembly generator</text>
</g>
<!-- ir_emitter&#45;&gt;assembly_emitter -->
<g id="edge5" class="edge">
<title>ir_emitter&#45;&gt;assembly_emitter</title>
<path fill="none" stroke="black" d="M82.5,-227.3C82.5,-214.06 82.5,-195.55 82.5,-180.26"/>
<polygon fill="black" stroke="black" points="86,-179.83 82.5,-169.83 79,-179.83 86,-179.83"/>
<text text-anchor="start" x="82.5" y="-201.6" font-family="monospace" font-size="10.00"> &#160;Intermediate represention (IR)</text>
<text text-anchor="start" x="82.5" y="-190.6" font-family="monospace" font-size="10.00"> &#160;(machine&#45;independent assembly code)</text>
</g>
<!-- assembler -->
<g id="node7" class="node">
<title>assembler</title>
<polygon fill="none" stroke="black" points="128,-86.6 37,-86.6 37,-50.6 128,-50.6 128,-86.6"/>
<text text-anchor="middle" x="82.5" y="-64.9" font-family="monospace" font-size="14.00">Assembler</text>
</g>
<!-- assembly_emitter&#45;&gt;assembler -->
<g id="edge6" class="edge">
<title>assembly_emitter&#45;&gt;assembler</title>
<path fill="none" stroke="black" d="M82.5,-133.42C82.5,-122.79 82.5,-108.91 82.5,-96.8"/>
<polygon fill="black" stroke="black" points="86,-96.75 82.5,-86.75 79,-96.75 86,-96.75"/>
<text text-anchor="middle" x="128" y="-107.6" font-family="monospace" font-size="10.00"> &#160;Assembly code</text>
</g>
<!-- end -->
<g id="node8" class="node">
<title>end</title>
<ellipse fill="black" stroke="black" cx="82.5" cy="-1.8" rx="1.8" ry="1.8"/>
</g>
<!-- assembler&#45;&gt;end -->
<g id="edge7" class="edge">
<title>assembler&#45;&gt;end</title>
<path fill="none" stroke="black" d="M82.5,-50.57C82.5,-39.16 82.5,-24.42 82.5,-14.35"/>
<polygon fill="black" stroke="black" points="86,-14.07 82.5,-4.07 79,-14.07 86,-14.07"/>
<text text-anchor="middle" x="125" y="-24.6" font-family="monospace" font-size="10.00"> &#160;Machine code</text>
</g>
</g>
</svg>
