<?xml version="1.0" encoding="UTF-8" standalone="no"?>
<!DOCTYPE svg PUBLIC "-//W3C//DTD SVG 1.1//EN"
 "http://www.w3.org/Graphics/SVG/1.1/DTD/svg11.dtd">
<!-- Generated by graphviz
 -->
<!-- Title: G Pages: 1 -->
<svg width="456pt" height="260pt"
 viewBox="0.00 0.00 455.50 260.00" xmlns="http://www.w3.org/2000/svg" xmlns:xlink="http://www.w3.org/1999/xlink">
<g id="graph0" class="graph" transform="scale(1 1) rotate(0) translate(4 256)">
<title>G</title>
<polygon fill="white" stroke="transparent" points="-4,4 -4,-256 451.5,-256 451.5,4 -4,4"/>
<!-- if -->
<g id="node1" class="node">
<title>if</title>
<polygon fill="none" stroke="black" points="306,-252 116,-252 116,-216 306,-216 306,-252"/>
<text text-anchor="middle" x="211" y="-230.3" font-family="monospace" font-size="14.00">if : (Bool) → Nothing</text>
</g>
<!-- lt -->
<g id="node2" class="node">
<title>lt</title>
<polygon fill="none" stroke="black" points="190,-180 0,-180 0,-144 190,-144 190,-180"/>
<text text-anchor="middle" x="95" y="-158.3" font-family="monospace" font-size="14.00">&lt; : (Int, Int) → Bool</text>
</g>
<!-- if&#45;&gt;lt -->
<g id="edge1" class="edge">
<title>if&#45;&gt;lt</title>
<path fill="none" stroke="black" d="M182.62,-215.88C167.46,-206.72 148.59,-195.34 132.26,-185.48"/>
<polygon fill="black" stroke="black" points="133.86,-182.36 123.49,-180.19 130.24,-188.35 133.86,-182.36"/>
</g>
<!-- print_int -->
<g id="node3" class="node">
<title>print_int</title>
<polygon fill="none" stroke="black" points="447.5,-180 208.5,-180 208.5,-144 447.5,-144 447.5,-180"/>
<text text-anchor="middle" x="328" y="-158.3" font-family="monospace" font-size="14.00">print_int : (Int) → Nothing</text>
</g>
<!-- if&#45;&gt;print_int -->
<g id="edge4" class="edge">
<title>if&#45;&gt;print_int</title>
<path fill="none" stroke="black" d="M239.62,-215.88C254.92,-206.72 273.94,-195.34 290.42,-185.48"/>
<polygon fill="black" stroke="black" points="292.48,-188.33 299.27,-180.19 288.89,-182.32 292.48,-188.33"/>
</g>
<!-- ten -->
<g id="node6" class="node">
<title>ten</title>
<polygon fill="none" stroke="black" points="177.5,-108 94.5,-108 94.5,-72 177.5,-72 177.5,-108"/>
<text text-anchor="middle" x="136" y="-86.3" font-family="monospace" font-size="14.00">10 : Int</text>
</g>
<!-- lt&#45;&gt;ten -->
<g id="edge3" class="edge">
<title>lt&#45;&gt;ten</title>
<path fill="none" stroke="black" d="M105.13,-143.7C109.85,-135.64 115.56,-125.89 120.78,-116.98"/>
<polygon fill="black" stroke="black" points="123.95,-118.5 125.98,-108.1 117.91,-114.96 123.95,-118.5"/>
</g>
<!-- a -->
<g id="node7" class="node">
<title>a</title>
<polygon fill="none" stroke="black" points="76,-108 2,-108 2,-72 76,-72 76,-108"/>
<text text-anchor="middle" x="39" y="-86.3" font-family="monospace" font-size="14.00">a : Int</text>
</g>
<!-- lt&#45;&gt;a -->
<g id="edge2" class="edge">
<title>lt&#45;&gt;a</title>
<path fill="none" stroke="black" d="M81.16,-143.7C74.51,-135.39 66.42,-125.28 59.11,-116.14"/>
<polygon fill="black" stroke="black" points="61.66,-113.73 52.68,-108.1 56.2,-118.1 61.66,-113.73"/>
</g>
<!-- times -->
<g id="node4" class="node">
<title>times</title>
<polygon fill="none" stroke="black" points="419,-108 237,-108 237,-72 419,-72 419,-108"/>
<text text-anchor="middle" x="328" y="-86.3" font-family="monospace" font-size="14.00">* : (Int, Int) → Int</text>
</g>
<!-- print_int&#45;&gt;times -->
<g id="edge5" class="edge">
<title>print_int&#45;&gt;times</title>
<path fill="none" stroke="black" d="M328,-143.7C328,-135.98 328,-126.71 328,-118.11"/>
<polygon fill="black" stroke="black" points="331.5,-118.1 328,-108.1 324.5,-118.1 331.5,-118.1"/>
</g>
<!-- three -->
<g id="node5" class="node">
<title>three</title>
<polygon fill="none" stroke="black" points="319,-36 245,-36 245,0 319,0 319,-36"/>
<text text-anchor="middle" x="282" y="-14.3" font-family="monospace" font-size="14.00">3 : Int</text>
</g>
<!-- times&#45;&gt;three -->
<g id="edge6" class="edge">
<title>times&#45;&gt;three</title>
<path fill="none" stroke="black" d="M316.63,-71.7C311.28,-63.56 304.8,-53.69 298.89,-44.7"/>
<polygon fill="black" stroke="black" points="301.66,-42.54 293.24,-36.1 295.81,-46.38 301.66,-42.54"/>
</g>
<!-- x -->
<g id="node8" class="node">
<title>x</title>
<polygon fill="none" stroke="black" points="411,-36 337,-36 337,0 411,0 411,-36"/>
<text text-anchor="middle" x="374" y="-14.3" font-family="monospace" font-size="14.00">x : Int</text>
</g>
<!-- times&#45;&gt;x -->
<g id="edge7" class="edge">
<title>times&#45;&gt;x</title>
<path fill="none" stroke="black" d="M339.37,-71.7C344.72,-63.56 351.2,-53.69 357.11,-44.7"/>
<polygon fill="black" stroke="black" points="360.19,-46.38 362.76,-36.1 354.34,-42.54 360.19,-46.38"/>
</g>
</g>
</svg>
