<?xml version="1.0" encoding="UTF-8" standalone="no"?>
<!DOCTYPE svg PUBLIC "-//W3C//DTD SVG 1.1//EN"
 "http://www.w3.org/Graphics/SVG/1.1/DTD/svg11.dtd">
<!-- Generated by graphviz
 -->
<!-- Title: G Pages: 1 -->
<svg width="343pt" height="260pt"
 viewBox="0.00 0.00 342.50 260.00" xmlns="http://www.w3.org/2000/svg" xmlns:xlink="http://www.w3.org/1999/xlink">
<g id="graph0" class="graph" transform="scale(1 1) rotate(0) translate(4 256)">
<title>G</title>
<polygon fill="white" stroke="transparent" points="-4,4 -4,-256 338.5,-256 338.5,4 -4,4"/>
<!-- x1 -->
<g id="node1" class="node">
<title>x1</title>
<polygon fill="none" stroke="black" points="54,-108 0,-108 0,-72 54,-72 54,-108"/>
<text text-anchor="middle" x="27" y="-86.3" font-family="monospace" font-size="14.00">x</text>
</g>
<!-- x2 -->
<g id="node2" class="node">
<title>x2</title>
<polygon fill="none" stroke="black" points="171,-36 117,-36 117,0 171,0 171,-36"/>
<text text-anchor="middle" x="144" y="-14.3" font-family="monospace" font-size="14.00">x</text>
</g>
<!-- lt -->
<g id="node3" class="node">
<title>lt</title>
<polygon fill="none" stroke="black" points="116,-180 62,-180 62,-144 116,-144 116,-180"/>
<text text-anchor="middle" x="89" y="-158.3" font-family="monospace" font-size="14.00">&lt;</text>
</g>
<!-- lt&#45;&gt;x1 -->
<g id="edge2" class="edge">
<title>lt&#45;&gt;x1</title>
<path fill="none" stroke="black" d="M73.67,-143.7C66.24,-135.3 57.18,-125.07 49.02,-115.86"/>
<polygon fill="black" stroke="black" points="51.4,-113.27 42.15,-108.1 46.16,-117.91 51.4,-113.27"/>
</g>
<!-- 10 -->
<g id="node8" class="node">
<title>10</title>
<polygon fill="none" stroke="black" points="126,-108 72,-108 72,-72 126,-72 126,-108"/>
<text text-anchor="middle" x="99" y="-86.3" font-family="monospace" font-size="14.00">10</text>
</g>
<!-- lt&#45;&gt;10 -->
<g id="edge3" class="edge">
<title>lt&#45;&gt;10</title>
<path fill="none" stroke="black" d="M91.47,-143.7C92.57,-135.98 93.9,-126.71 95.13,-118.11"/>
<polygon fill="black" stroke="black" points="98.61,-118.5 96.56,-108.1 91.68,-117.51 98.61,-118.5"/>
</g>
<!-- print_int_1 -->
<g id="node4" class="node">
<title>print_int_1</title>
<polygon fill="none" stroke="black" points="225.5,-180 134.5,-180 134.5,-144 225.5,-144 225.5,-180"/>
<text text-anchor="middle" x="180" y="-158.3" font-family="monospace" font-size="14.00">print_int</text>
</g>
<!-- plus -->
<g id="node6" class="node">
<title>plus</title>
<polygon fill="none" stroke="black" points="207,-108 153,-108 153,-72 207,-72 207,-108"/>
<text text-anchor="middle" x="180" y="-86.3" font-family="monospace" font-size="14.00">+</text>
</g>
<!-- print_int_1&#45;&gt;plus -->
<g id="edge5" class="edge">
<title>print_int_1&#45;&gt;plus</title>
<path fill="none" stroke="black" d="M180,-143.7C180,-135.98 180,-126.71 180,-118.11"/>
<polygon fill="black" stroke="black" points="183.5,-118.1 180,-108.1 176.5,-118.1 183.5,-118.1"/>
</g>
<!-- print_int_2 -->
<g id="node5" class="node">
<title>print_int_2</title>
<polygon fill="none" stroke="black" points="334.5,-180 243.5,-180 243.5,-144 334.5,-144 334.5,-180"/>
<text text-anchor="middle" x="289" y="-158.3" font-family="monospace" font-size="14.00">print_int</text>
</g>
<!-- 0 -->
<g id="node10" class="node">
<title>0</title>
<polygon fill="none" stroke="black" points="316,-108 262,-108 262,-72 316,-72 316,-108"/>
<text text-anchor="middle" x="289" y="-86.3" font-family="monospace" font-size="14.00">0</text>
</g>
<!-- print_int_2&#45;&gt;0 -->
<g id="edge9" class="edge">
<title>print_int_2&#45;&gt;0</title>
<path fill="none" stroke="black" d="M289,-143.7C289,-135.98 289,-126.71 289,-118.11"/>
<polygon fill="black" stroke="black" points="292.5,-118.1 289,-108.1 285.5,-118.1 292.5,-118.1"/>
</g>
<!-- plus&#45;&gt;x2 -->
<g id="edge6" class="edge">
<title>plus&#45;&gt;x2</title>
<path fill="none" stroke="black" d="M171.1,-71.7C167,-63.73 162.05,-54.1 157.51,-45.26"/>
<polygon fill="black" stroke="black" points="160.48,-43.4 152.8,-36.1 154.26,-46.6 160.48,-43.4"/>
</g>
<!-- 7 -->
<g id="node9" class="node">
<title>7</title>
<polygon fill="none" stroke="black" points="243,-36 189,-36 189,0 243,0 243,-36"/>
<text text-anchor="middle" x="216" y="-14.3" font-family="monospace" font-size="14.00">7</text>
</g>
<!-- plus&#45;&gt;7 -->
<g id="edge7" class="edge">
<title>plus&#45;&gt;7</title>
<path fill="none" stroke="black" d="M188.9,-71.7C193,-63.73 197.95,-54.1 202.49,-45.26"/>
<polygon fill="black" stroke="black" points="205.74,-46.6 207.2,-36.1 199.52,-43.4 205.74,-46.6"/>
</g>
<!-- if -->
<g id="node7" class="node">
<title>if</title>
<polygon fill="none" stroke="black" points="207,-252 153,-252 153,-216 207,-216 207,-252"/>
<text text-anchor="middle" x="180" y="-230.3" font-family="monospace" font-size="14.00">if</text>
</g>
<!-- if&#45;&gt;lt -->
<g id="edge1" class="edge">
<title>if&#45;&gt;lt</title>
<path fill="none" stroke="black" d="M157.51,-215.7C146.04,-206.88 131.94,-196.03 119.52,-186.47"/>
<polygon fill="black" stroke="black" points="121.3,-183.43 111.24,-180.1 117.03,-188.98 121.3,-183.43"/>
</g>
<!-- if&#45;&gt;print_int_1 -->
<g id="edge4" class="edge">
<title>if&#45;&gt;print_int_1</title>
<path fill="none" stroke="black" d="M180,-215.7C180,-207.98 180,-198.71 180,-190.11"/>
<polygon fill="black" stroke="black" points="183.5,-190.1 180,-180.1 176.5,-190.1 183.5,-190.1"/>
</g>
<!-- if&#45;&gt;print_int_2 -->
<g id="edge8" class="edge">
<title>if&#45;&gt;print_int_2</title>
<path fill="none" stroke="black" d="M206.66,-215.88C220.78,-206.81 238.31,-195.55 253.56,-185.76"/>
<polygon fill="black" stroke="black" points="255.71,-188.54 262.23,-180.19 251.93,-182.65 255.71,-188.54"/>
</g>
</g>
</svg>
