<?xml version="1.0" encoding="UTF-8" standalone="no"?>
<!DOCTYPE svg PUBLIC "-//W3C//DTD SVG 1.1//EN"
 "http://www.w3.org/Graphics/SVG/1.1/DTD/svg11.dtd">
<!-- Generated by graphviz
 -->
<!-- Title: G Pages: 1 -->
<svg width="181pt" height="347pt"
 viewBox="0.00 0.00 181.00 346.60" xmlns="http://www.w3.org/2000/svg" xmlns:xlink="http://www.w3.org/1999/xlink">
<g id="graph0" class="graph" transform="scale(1 1) rotate(0) translate(4 342.6)">
<title>G</title>
<polygon fill="white" stroke="transparent" points="-4,4 -4,-342.6 177,-342.6 177,4 -4,4"/>
<!-- toplevel -->
<g id="node1" class="node">
<title>toplevel</title>
<polygon fill="none" stroke="black" points="173,-83 0,-83 0,0 173,0 173,-83"/>
<text text-anchor="start" x="8" y="-67.8" font-family="monospace" font-size="14.00">locals = {</text>
<text text-anchor="start" x="8" y="-52.8" font-family="monospace" font-size="14.00"> &#160;&#39;print_int&#39;: ...,</text>
<text text-anchor="start" x="8" y="-37.8" font-family="monospace" font-size="14.00"> &#160;&#39;+&#39;: ...,</text>
<text text-anchor="start" x="8" y="-22.8" font-family="monospace" font-size="14.00"> &#160;...</text>
<text text-anchor="start" x="8" y="-7.8" font-family="monospace" font-size="14.00">}</text>
</g>
<!-- level1 -->
<g id="node2" class="node">
<title>level1</title>
<polygon fill="none" stroke="black" points="136,-183 37,-183 37,-130 136,-130 136,-183"/>
<text text-anchor="start" x="45" y="-167.8" font-family="monospace" font-size="14.00">locals = {</text>
<text text-anchor="start" x="45" y="-152.8" font-family="monospace" font-size="14.00"> &#160;&#39;x&#39;: 1</text>
<text text-anchor="start" x="45" y="-137.8" font-family="monospace" font-size="14.00">}</text>
</g>
<!-- level1&#45;&gt;toplevel -->
<g id="edge3" class="edge">
<title>level1&#45;&gt;toplevel</title>
<path fill="none" stroke="black" d="M86.5,-129.86C86.5,-118.97 86.5,-105.87 86.5,-93.16"/>
<polygon fill="black" stroke="black" points="90,-93.11 86.5,-83.11 83,-93.11 90,-93.11"/>
<text text-anchor="middle" x="105" y="-104" font-family="monospace" font-size="10.00">parent</text>
</g>
<!-- level2 -->
<g id="node3" class="node">
<title>level2</title>
<polygon fill="none" stroke="black" points="136,-298 37,-298 37,-230 136,-230 136,-298"/>
<text text-anchor="start" x="45" y="-282.8" font-family="monospace" font-size="14.00">locals = {</text>
<text text-anchor="start" x="45" y="-267.8" font-family="monospace" font-size="14.00"> &#160;&#39;x&#39;: 2,</text>
<text text-anchor="start" x="45" y="-252.8" font-family="monospace" font-size="14.00"> &#160;&#39;y&#39;: 3,</text>
<text text-anchor="start" x="45" y="-237.8" font-family="monospace" font-size="14.00">}</text>
</g>
<!-- level2&#45;&gt;level1 -->
<g id="edge2" class="edge">
<title>level2&#45;&gt;level1</title>
<path fill="none" stroke="black" d="M86.5,-229.91C86.5,-218.22 86.5,-205.04 86.5,-193.15"/>
<polygon fill="black" stroke="black" points="90,-193.11 86.5,-183.11 83,-193.11 90,-193.11"/>
<text text-anchor="middle" x="105" y="-204" font-family="monospace" font-size="10.00">parent</text>
</g>
<!-- current -->
<g id="node4" class="node">
<title>current</title>
<ellipse fill="black" stroke="black" cx="86.5" cy="-336.8" rx="1.8" ry="1.8"/>
</g>
<!-- current&#45;&gt;level2 -->
<g id="edge1" class="edge">
<title>current&#45;&gt;level2</title>
<path fill="none" stroke="black" d="M86.5,-334.8C86.5,-331.51 86.5,-320.54 86.5,-308.24"/>
<polygon fill="black" stroke="black" points="90,-308.21 86.5,-298.21 83,-308.21 90,-308.21"/>
</g>
</g>
</svg>
